<svg width="79" height="64" viewBox="0 0 79 64" fill="none" xmlns="http://www.w3.org/2000/svg">
<path d="M61.01 40.8418H53V53.0798H61.01V40.8418Z" fill="#232323" stroke="#191919" stroke-miterlimit="10"/>
<path d="M58.8811 55.1759L76.3891 58.2259C77.0021 58.3329 77.564 57.8609 77.564 57.2379V36.6819C77.564 36.0589 77.0031 35.5869 76.3891 35.6939L58.8811 38.7439C58.4011 38.8279 58.05 39.2439 58.05 39.7319V54.1879C58.05 54.6759 58.4011 55.0919 58.8811 55.1759Z" fill="#5B5B5B" stroke="#191919" stroke-miterlimit="10"/>
<path d="M46.909 63.0582H19.094C18.479 63.0582 17.98 62.5592 17.98 61.9442V46.2722C17.98 45.6572 18.479 45.1582 19.094 45.1582H46.909C47.524 45.1582 48.023 45.6572 48.023 46.2722V61.9442C48.022 62.5592 47.524 63.0582 46.909 63.0582Z" fill="#232323" stroke="#191919" stroke-miterlimit="10"/>
<path d="M55.316 60.92H10.687C10.072 60.92 9.573 60.421 9.573 59.806V34.115C9.573 33.5 10.072 33.001 10.687 33.001H55.316C55.931 33.001 56.43 33.5 56.43 34.115V59.806C56.43 60.421 55.931 60.92 55.316 60.92Z" fill="#5B5B5B" stroke="#191919" stroke-miterlimit="10"/>
<path d="M49.959 1.2168C41.518 1.2168 34.676 8.0598 34.676 16.4998C34.676 24.9408 41.519 31.7828 49.959 31.7828C58.399 31.7828 65.242 24.9408 65.242 16.4998C65.242 8.0598 58.399 1.2168 49.959 1.2168ZM50.051 20.4888C48.171 20.4888 46.647 18.9648 46.647 17.0848C46.647 15.2048 48.171 13.6808 50.051 13.6808C51.931 13.6808 53.455 15.2048 53.455 17.0848C53.455 18.9648 51.931 20.4888 50.051 20.4888Z" fill="#232323"/>
<path d="M49.959 32.501C41.136 32.501 33.958 25.323 33.958 16.5C33.958 7.677 41.136 0.5 49.959 0.5C58.781 0.5 65.959 7.678 65.959 16.5C65.959 25.322 58.781 32.501 49.959 32.501ZM54.724 20.156C54.382 20.156 54.053 20.319 53.844 20.593C53.632 20.868 53.563 21.219 53.654 21.556L55.433 28.203C55.564 28.688 56.006 29.027 56.51 29.027C56.806 29.027 57.084 28.911 57.294 28.701L62.159 23.835C62.443 23.551 62.551 23.149 62.447 22.761C62.343 22.373 62.049 22.079 61.66 21.975L55.014 20.194C54.92 20.169 54.822 20.156 54.724 20.156ZM45.193 20.156C45.095 20.156 44.998 20.169 44.902 20.195L38.255 21.976C37.867 22.08 37.574 22.373 37.47 22.762C37.366 23.15 37.474 23.552 37.758 23.836L42.623 28.702C42.833 28.912 43.111 29.028 43.407 29.028C43.911 29.028 44.353 28.689 44.483 28.203L46.264 21.556C46.354 21.22 46.285 20.868 46.073 20.593C45.864 20.32 45.535 20.156 45.193 20.156ZM49.959 14.043C48.605 14.043 47.502 15.145 47.502 16.5C47.502 17.855 48.605 18.958 49.959 18.958C51.313 18.958 52.416 17.855 52.416 16.5C52.416 15.145 51.313 14.043 49.959 14.043ZM56.511 3.973C56.007 3.973 55.565 4.312 55.435 4.797L53.654 11.445C53.564 11.781 53.633 12.133 53.845 12.408C54.054 12.682 54.383 12.845 54.725 12.845C54.823 12.845 54.92 12.832 55.016 12.806L61.662 11.025C62.05 10.921 62.344 10.628 62.448 10.239C62.552 9.851 62.444 9.449 62.16 9.165L57.295 4.299C57.085 4.089 56.806 3.973 56.511 3.973ZM43.407 3.973C43.111 3.973 42.833 4.089 42.623 4.299L37.758 9.165C37.474 9.449 37.366 9.851 37.47 10.239C37.574 10.627 37.867 10.921 38.256 11.025L44.902 12.806C44.998 12.832 45.095 12.845 45.193 12.845C45.535 12.845 45.864 12.682 46.073 12.408C46.285 12.133 46.354 11.782 46.263 11.445L44.483 4.798C44.353 4.312 43.911 3.973 43.407 3.973Z" fill="#5B5B5B"/>
<path d="M49.959 1C58.506 1 65.46 7.954 65.46 16.501C65.46 25.048 58.507 32.002 49.959 32.002C41.411 32.002 34.458 25.048 34.458 16.501C34.458 7.954 41.412 1 49.959 1ZM45.193 13.344C45.689 13.344 46.166 13.108 46.47 12.712C46.777 12.312 46.878 11.803 46.747 11.315L44.966 4.668C44.777 3.964 44.136 3.473 43.407 3.473C42.978 3.473 42.575 3.641 42.27 3.945L37.404 8.811C36.998 9.217 36.838 9.813 36.987 10.368C37.136 10.922 37.572 11.359 38.127 11.508L44.774 13.289C44.911 13.326 45.052 13.344 45.193 13.344ZM54.724 13.344C54.865 13.344 55.006 13.325 55.144 13.288L61.791 11.507C62.345 11.358 62.782 10.922 62.931 10.367C63.08 9.813 62.92 9.216 62.514 8.81L57.648 3.944C57.343 3.639 56.939 3.472 56.511 3.472C55.781 3.472 55.14 3.963 54.952 4.667L53.171 11.314C53.04 11.802 53.141 12.311 53.448 12.711C53.751 13.108 54.229 13.344 54.724 13.344ZM49.959 19.458C51.59 19.458 52.916 18.131 52.916 16.501C52.916 14.87 51.589 13.544 49.959 13.544C48.329 13.544 47.002 14.871 47.002 16.501C47.001 18.131 48.328 19.458 49.959 19.458ZM56.511 29.528C56.94 29.528 57.344 29.36 57.648 29.056L62.514 24.19C62.92 23.784 63.08 23.188 62.931 22.633C62.782 22.079 62.346 21.642 61.791 21.493L55.144 19.712C55.006 19.675 54.865 19.656 54.724 19.656C54.228 19.656 53.751 19.892 53.447 20.289C53.14 20.689 53.039 21.198 53.17 21.686L54.951 28.333C55.14 29.037 55.781 29.528 56.511 29.528ZM43.407 29.528C44.137 29.528 44.778 29.037 44.966 28.333L46.747 21.686C46.878 21.198 46.777 20.689 46.47 20.289C46.166 19.893 45.689 19.657 45.193 19.657C45.052 19.657 44.911 19.676 44.773 19.713L38.126 21.494C37.572 21.643 37.135 22.079 36.986 22.634C36.837 23.188 36.997 23.785 37.403 24.191L42.269 29.057C42.574 29.36 42.978 29.528 43.407 29.528ZM49.959 0C40.846 0 33.458 7.388 33.458 16.501C33.458 25.614 40.846 33.002 49.959 33.002C59.072 33.002 66.46 25.614 66.46 16.501C66.46 7.388 59.072 0 49.959 0ZM45.193 12.344C45.14 12.344 45.086 12.337 45.032 12.323L38.385 10.542C37.93 10.42 37.778 9.851 38.111 9.518L42.977 4.652C43.1 4.529 43.255 4.472 43.407 4.472C43.668 4.472 43.923 4.639 44 4.926L45.781 11.573C45.889 11.974 45.579 12.344 45.193 12.344ZM54.724 12.344C54.338 12.344 54.029 11.974 54.136 11.573L55.917 4.926C55.994 4.639 56.249 4.472 56.51 4.472C56.663 4.472 56.817 4.529 56.94 4.652L61.806 9.518C62.139 9.851 61.987 10.42 61.532 10.542L54.885 12.323C54.831 12.338 54.777 12.344 54.724 12.344ZM49.959 18.458C48.878 18.458 48.002 17.582 48.002 16.501C48.002 15.42 48.878 14.544 49.959 14.544C51.04 14.544 51.916 15.42 51.916 16.501C51.916 17.582 51.04 18.458 49.959 18.458ZM43.407 28.528C43.254 28.528 43.1 28.471 42.977 28.348L38.111 23.482C37.778 23.149 37.93 22.58 38.385 22.458L45.032 20.677C45.087 20.662 45.141 20.655 45.193 20.655C45.579 20.655 45.888 21.025 45.781 21.426L44 28.073C43.923 28.361 43.668 28.528 43.407 28.528ZM56.511 28.528C56.25 28.528 55.995 28.361 55.918 28.074L54.137 21.427C54.03 21.027 54.339 20.656 54.725 20.656C54.778 20.656 54.832 20.663 54.886 20.677L61.533 22.458C61.988 22.58 62.14 23.149 61.807 23.482L56.941 28.348C56.818 28.471 56.663 28.528 56.511 28.528Z" fill="#191919"/>
<path d="M16.501 1.2168C8.06002 1.2168 1.21802 8.0598 1.21802 16.4998C1.21802 24.9408 8.06102 31.7828 16.501 31.7828C24.941 31.7828 31.784 24.9398 31.784 16.4998C31.784 8.0598 24.941 1.2168 16.501 1.2168ZM16.593 20.4888C14.713 20.4888 13.189 18.9648 13.189 17.0848C13.189 15.2048 14.713 13.6808 16.593 13.6808C18.473 13.6808 19.997 15.2048 19.997 17.0848C19.997 18.9648 18.473 20.4888 16.593 20.4888Z" fill="#232323"/>
<path d="M16.501 32.501C7.678 32.501 0.5 25.323 0.5 16.5C0.5 7.677 7.678 0.5 16.501 0.5C25.324 0.5 32.502 7.678 32.502 16.5C32.502 25.322 25.324 32.501 16.501 32.501ZM21.266 20.156C20.924 20.156 20.595 20.319 20.386 20.593C20.174 20.868 20.105 21.219 20.196 21.556L21.976 28.203C22.106 28.688 22.548 29.027 23.052 29.027C23.348 29.027 23.626 28.911 23.836 28.701L28.701 23.835C28.985 23.551 29.093 23.149 28.989 22.761C28.885 22.373 28.592 22.079 28.203 21.975L21.557 20.194C21.462 20.169 21.364 20.156 21.266 20.156ZM11.735 20.156C11.637 20.156 11.54 20.169 11.444 20.195L4.797 21.976C4.409 22.08 4.116 22.373 4.012 22.762C3.908 23.15 4.016 23.552 4.3 23.836L9.165 28.702C9.375 28.912 9.653 29.028 9.949 29.028C10.453 29.028 10.895 28.689 11.025 28.203L12.806 21.556C12.896 21.22 12.827 20.868 12.615 20.593C12.406 20.32 12.077 20.156 11.735 20.156ZM16.501 14.043C15.147 14.043 14.044 15.145 14.044 16.5C14.044 17.855 15.147 18.958 16.501 18.958C17.855 18.958 18.958 17.855 18.958 16.5C18.958 15.145 17.855 14.043 16.501 14.043ZM23.053 3.973C22.549 3.973 22.107 4.312 21.977 4.798L20.196 11.445C20.106 11.781 20.175 12.133 20.387 12.408C20.596 12.682 20.925 12.845 21.267 12.845C21.365 12.845 21.462 12.832 21.558 12.806L28.205 11.025C28.593 10.921 28.886 10.628 28.99 10.239C29.094 9.851 28.986 9.449 28.702 9.165L23.837 4.299C23.627 4.089 23.348 3.973 23.053 3.973ZM9.949 3.973C9.653 3.973 9.375 4.089 9.165 4.299L4.3 9.165C4.016 9.449 3.908 9.851 4.012 10.239C4.116 10.627 4.409 10.921 4.798 11.025L11.444 12.806C11.54 12.832 11.637 12.845 11.735 12.845C12.077 12.845 12.406 12.682 12.615 12.408C12.827 12.133 12.896 11.782 12.805 11.445L11.025 4.798C10.895 4.312 10.453 3.973 9.949 3.973Z" fill="#5B5B5B"/>
<path d="M16.501 1C25.048 1 32.002 7.954 32.002 16.501C32.002 25.048 25.049 32.002 16.501 32.002C7.953 32.002 1 25.048 1 16.501C1 7.954 7.954 1 16.501 1ZM11.735 13.344C12.231 13.344 12.708 13.108 13.012 12.712C13.319 12.312 13.42 11.803 13.289 11.315L11.508 4.668C11.319 3.964 10.678 3.473 9.949 3.473C9.52 3.473 9.117 3.641 8.812 3.945L3.946 8.811C3.54 9.217 3.38 9.813 3.529 10.368C3.678 10.922 4.114 11.359 4.669 11.508L11.316 13.289C11.453 13.326 11.594 13.344 11.735 13.344ZM21.266 13.344C21.407 13.344 21.548 13.325 21.686 13.288L28.333 11.507C28.887 11.358 29.324 10.922 29.473 10.367C29.622 9.813 29.462 9.216 29.056 8.81L24.19 3.944C23.885 3.639 23.481 3.472 23.053 3.472C22.323 3.472 21.682 3.963 21.494 4.667L19.713 11.314C19.582 11.802 19.683 12.311 19.99 12.711C20.293 13.108 20.771 13.344 21.266 13.344ZM16.501 19.458C18.132 19.458 19.458 18.131 19.458 16.501C19.458 14.87 18.131 13.544 16.501 13.544C14.871 13.544 13.544 14.871 13.544 16.501C13.543 18.131 14.87 19.458 16.501 19.458ZM23.053 29.528C23.482 29.528 23.886 29.36 24.19 29.056L29.056 24.19C29.462 23.784 29.622 23.188 29.473 22.633C29.324 22.079 28.888 21.642 28.333 21.493L21.686 19.712C21.548 19.675 21.407 19.656 21.266 19.656C20.77 19.656 20.293 19.892 19.989 20.289C19.682 20.689 19.581 21.198 19.712 21.686L21.493 28.333C21.682 29.037 22.323 29.528 23.053 29.528ZM9.949 29.528C10.679 29.528 11.32 29.037 11.508 28.333L13.289 21.686C13.42 21.198 13.319 20.689 13.012 20.289C12.708 19.893 12.231 19.657 11.735 19.657C11.594 19.657 11.453 19.676 11.315 19.713L4.668 21.494C4.114 21.643 3.677 22.079 3.528 22.634C3.379 23.188 3.539 23.785 3.945 24.191L8.811 29.057C9.116 29.36 9.52 29.528 9.949 29.528ZM16.501 0C7.388 0 0 7.388 0 16.501C0 25.614 7.388 33.002 16.501 33.002C25.614 33.002 33.002 25.614 33.002 16.501C33.002 7.388 25.614 0 16.501 0ZM11.735 12.344C11.682 12.344 11.628 12.337 11.574 12.323L4.927 10.542C4.472 10.42 4.32 9.851 4.653 9.518L9.519 4.652C9.642 4.529 9.797 4.472 9.949 4.472C10.21 4.472 10.465 4.639 10.542 4.926L12.323 11.573C12.431 11.974 12.121 12.344 11.735 12.344ZM21.266 12.344C20.88 12.344 20.571 11.974 20.678 11.573L22.459 4.926C22.536 4.639 22.791 4.472 23.052 4.472C23.205 4.472 23.359 4.529 23.482 4.652L28.348 9.518C28.681 9.851 28.529 10.42 28.074 10.542L21.427 12.323C21.373 12.338 21.319 12.344 21.266 12.344ZM16.501 18.458C15.42 18.458 14.544 17.582 14.544 16.501C14.544 15.42 15.42 14.544 16.501 14.544C17.582 14.544 18.458 15.42 18.458 16.501C18.458 17.581 17.582 18.458 16.501 18.458ZM9.949 28.528C9.796 28.528 9.642 28.471 9.519 28.348L4.653 23.482C4.32 23.149 4.472 22.58 4.927 22.458L11.574 20.677C11.629 20.662 11.683 20.655 11.735 20.655C12.121 20.655 12.43 21.025 12.323 21.426L10.542 28.073C10.465 28.361 10.21 28.528 9.949 28.528ZM23.053 28.528C22.792 28.528 22.537 28.361 22.46 28.074L20.679 21.427C20.572 21.027 20.881 20.656 21.267 20.656C21.32 20.656 21.374 20.663 21.428 20.677L28.075 22.458C28.53 22.58 28.682 23.149 28.349 23.482L23.483 28.348C23.36 28.471 23.205 28.528 23.053 28.528Z" fill="#191919"/>
<path d="M51.491 54.5291H14.512C14.117 54.5291 13.797 54.2091 13.797 53.8141V40.1071C13.797 39.7121 14.117 39.3921 14.512 39.3921H51.491C51.886 39.3921 52.206 39.7121 52.206 40.1071V53.8141C52.206 54.2091 51.886 54.5291 51.491 54.5291Z" fill="#232323" stroke="#191919" stroke-miterlimit="10"/>
</svg>
